<svg xmlns="http://www.w3.org/2000/svg" width="1280" height="640" viewBox="0 0 1280 640" fill="none">
  <rect width="1280" height="640" fill="#0B1020"/>
  <rect x="40" y="40" width="1200" height="560" rx="28" fill="url(#bg)"/>
  <circle cx="1040" cy="148" r="164" fill="#1F6FEB" fill-opacity="0.16"/>
  <circle cx="1148" cy="476" r="126" fill="#34D399" fill-opacity="0.14"/>
  <circle cx="204" cy="118" r="98" fill="#FFD166" fill-opacity="0.12"/>

  <rect x="118" y="148" width="108" height="108" rx="28" fill="#1F6FEB"/>
  <path d="M145 202C145 187.088 157.088 175 172 175H188.5" stroke="#F7F9FC" stroke-width="10" stroke-linecap="round"/>
  <path d="M182.5 166.5L201 175L182.5 183.5" stroke="#F7F9FC" stroke-width="10" stroke-linecap="round" stroke-linejoin="round"/>
  <path d="M199 202C199 216.912 186.912 229 172 229H155.5" stroke="#FFD166" stroke-width="10" stroke-linecap="round"/>
  <path d="M161.5 237.5L143 229L161.5 220.5" stroke="#FFD166" stroke-width="10" stroke-linecap="round" stroke-linejoin="round"/>
  <circle cx="172" cy="202" r="15" fill="#F7F9FC"/>
  <path d="M166.5 202H177.5" stroke="#1F6FEB" stroke-width="6" stroke-linecap="round"/>
  <path d="M172 196.5V207.5" stroke="#1F6FEB" stroke-width="6" stroke-linecap="round"/>

  <text x="270" y="205" fill="#F7F9FC" font-size="76" font-family="Verdana, DejaVu Sans, sans-serif" font-weight="700">FlowIME</text>
  <text x="270" y="270" fill="#A9B5D0" font-size="28" font-family="Verdana, DejaVu Sans, sans-serif">Context-aware IME switching for IntelliJ IDEA</text>
  <text x="118" y="376" fill="#E5ECF5" font-size="34" font-family="Verdana, DejaVu Sans, sans-serif">让输入法跟随编辑语义自动切换</text>
  <text x="118" y="430" fill="#C8D3E6" font-size="24" font-family="Verdana, DejaVu Sans, sans-serif">代码保持英文，注释与字符串自动切换中文，减少中文开发者的上下文打断</text>

  <rect x="118" y="482" width="242" height="56" rx="18" fill="#101A33"/>
  <text x="148" y="518" fill="#8FB4FF" font-size="24" font-family="Verdana, DejaVu Sans, sans-serif">Java / Kotlin / XML</text>
  <rect x="382" y="482" width="204" height="56" rx="18" fill="#101A33"/>
  <text x="412" y="518" fill="#7FE3B8" font-size="24" font-family="Verdana, DejaVu Sans, sans-serif">im-select</text>
  <rect x="608" y="482" width="270" height="56" rx="18" fill="#101A33"/>
  <text x="638" y="518" fill="#FFD98A" font-size="24" font-family="Verdana, DejaVu Sans, sans-serif">Structured Reports</text>

  <defs>
    <linearGradient id="bg" x1="40" y1="40" x2="1240" y2="600" gradientUnits="userSpaceOnUse">
      <stop stop-color="#111A33"/>
      <stop offset="1" stop-color="#0D152A"/>
    </linearGradient>
  </defs>
</svg>
